<mxfile host="app.diagrams.net" agent="Mozilla/5.0 (Windows NT 10.0; Win64; x64) AppleWebKit/537.36 (KHTML, like Gecko) Chrome/141.0.0.0 Safari/537.36 Edg/141.0.0.0" version="28.2.8">
  <diagram name="Página-1" id="VMHtUTJQsDjMb5qIla0N">
    <mxGraphModel dx="994" dy="548" grid="1" gridSize="10" guides="1" tooltips="1" connect="1" arrows="1" fold="1" page="1" pageScale="1" pageWidth="827" pageHeight="1169" math="0" shadow="0">
      <root>
        <mxCell id="0" />
        <mxCell id="1" parent="0" />
        <mxCell id="9Js-WEe5Cu6Oap4ZdQ6m-13" style="edgeStyle=orthogonalEdgeStyle;rounded=0;orthogonalLoop=1;jettySize=auto;html=1;" edge="1" parent="1" source="9Js-WEe5Cu6Oap4ZdQ6m-10" target="9Js-WEe5Cu6Oap4ZdQ6m-11">
          <mxGeometry relative="1" as="geometry" />
        </mxCell>
        <mxCell id="9Js-WEe5Cu6Oap4ZdQ6m-25" style="edgeStyle=orthogonalEdgeStyle;rounded=0;orthogonalLoop=1;jettySize=auto;html=1;" edge="1" parent="1" source="9Js-WEe5Cu6Oap4ZdQ6m-10">
          <mxGeometry relative="1" as="geometry">
            <mxPoint x="410" y="60" as="targetPoint" />
            <Array as="points">
              <mxPoint x="240" y="60" />
            </Array>
          </mxGeometry>
        </mxCell>
        <mxCell id="9Js-WEe5Cu6Oap4ZdQ6m-39" value="Upload/Download" style="edgeLabel;html=1;align=center;verticalAlign=middle;resizable=0;points=[];" vertex="1" connectable="0" parent="9Js-WEe5Cu6Oap4ZdQ6m-25">
          <mxGeometry x="-0.3091" relative="1" as="geometry">
            <mxPoint as="offset" />
          </mxGeometry>
        </mxCell>
        <mxCell id="9Js-WEe5Cu6Oap4ZdQ6m-10" value="" style="verticalLabelPosition=bottom;html=1;verticalAlign=top;strokeWidth=1;align=center;outlineConnect=0;dashed=0;outlineConnect=0;shape=mxgraph.aws3d.application_server;fillColor=#ECECEC;strokeColor=#5E5E5E;aspect=fixed;strokeColor2=#292929;" vertex="1" parent="1">
          <mxGeometry x="180" y="220" width="123" height="124" as="geometry" />
        </mxCell>
        <mxCell id="9Js-WEe5Cu6Oap4ZdQ6m-28" style="edgeStyle=orthogonalEdgeStyle;rounded=0;orthogonalLoop=1;jettySize=auto;html=1;" edge="1" parent="1" source="9Js-WEe5Cu6Oap4ZdQ6m-11" target="9Js-WEe5Cu6Oap4ZdQ6m-26">
          <mxGeometry relative="1" as="geometry" />
        </mxCell>
        <mxCell id="9Js-WEe5Cu6Oap4ZdQ6m-11" value="" style="verticalLabelPosition=bottom;html=1;verticalAlign=top;strokeWidth=1;align=center;outlineConnect=0;dashed=0;outlineConnect=0;shape=mxgraph.aws3d.ebs2;fillColor=#ECECEC;strokeColor=#5E5E5E;aspect=fixed;strokeColor2=#292929;" vertex="1" parent="1">
          <mxGeometry x="460" y="252" width="92" height="60" as="geometry" />
        </mxCell>
        <mxCell id="9Js-WEe5Cu6Oap4ZdQ6m-21" style="edgeStyle=orthogonalEdgeStyle;rounded=0;orthogonalLoop=1;jettySize=auto;html=1;" edge="1" parent="1" source="9Js-WEe5Cu6Oap4ZdQ6m-18" target="9Js-WEe5Cu6Oap4ZdQ6m-20">
          <mxGeometry relative="1" as="geometry" />
        </mxCell>
        <mxCell id="9Js-WEe5Cu6Oap4ZdQ6m-18" value="" style="html=1;verticalLabelPosition=bottom;align=center;labelBackgroundColor=#ffffff;verticalAlign=top;strokeWidth=2;strokeColor=#0080F0;shadow=0;dashed=0;shape=mxgraph.ios7.icons.user;" vertex="1" parent="1">
          <mxGeometry x="370" y="407.4" width="66" height="60" as="geometry" />
        </mxCell>
        <mxCell id="9Js-WEe5Cu6Oap4ZdQ6m-29" style="edgeStyle=orthogonalEdgeStyle;rounded=0;orthogonalLoop=1;jettySize=auto;html=1;" edge="1" parent="1" source="9Js-WEe5Cu6Oap4ZdQ6m-20" target="9Js-WEe5Cu6Oap4ZdQ6m-10">
          <mxGeometry relative="1" as="geometry">
            <Array as="points">
              <mxPoint x="70" y="438" />
              <mxPoint x="70" y="282" />
            </Array>
          </mxGeometry>
        </mxCell>
        <mxCell id="9Js-WEe5Cu6Oap4ZdQ6m-20" value="" style="sketch=0;outlineConnect=0;fontColor=#232F3E;gradientColor=none;fillColor=#232F3D;strokeColor=none;dashed=0;verticalLabelPosition=bottom;verticalAlign=top;align=center;html=1;fontSize=12;fontStyle=0;aspect=fixed;pointerEvents=1;shape=mxgraph.aws4.internet_alt22;" vertex="1" parent="1">
          <mxGeometry x="150" y="398.4" width="78" height="78" as="geometry" />
        </mxCell>
        <mxCell id="9Js-WEe5Cu6Oap4ZdQ6m-23" value="" style="verticalLabelPosition=bottom;html=1;verticalAlign=top;strokeWidth=1;align=center;outlineConnect=0;dashed=0;outlineConnect=0;shape=mxgraph.aws3d.s3Bucket;fillColor=#4286c5;strokeColor=#57A2D8;aspect=fixed;strokeColor2=#292929;" vertex="1" parent="1">
          <mxGeometry x="420" y="40" width="76.15" height="79" as="geometry" />
        </mxCell>
        <mxCell id="9Js-WEe5Cu6Oap4ZdQ6m-26" value="" style="verticalLabelPosition=bottom;html=1;verticalAlign=top;strokeWidth=1;align=center;outlineConnect=0;dashed=0;outlineConnect=0;shape=mxgraph.aws3d.lambda;fillColor=#ECECEC;strokeColor=#5E5E5E;aspect=fixed;strokeColor2=#292929;strokeColor3=#ffffff;" vertex="1" parent="1">
          <mxGeometry x="680" y="237" width="75.62" height="90" as="geometry" />
        </mxCell>
        <mxCell id="9Js-WEe5Cu6Oap4ZdQ6m-30" value="EC2" style="text;html=1;whiteSpace=wrap;strokeColor=none;fillColor=none;align=center;verticalAlign=middle;rounded=0;" vertex="1" parent="1">
          <mxGeometry x="260" y="330" width="60" height="30" as="geometry" />
        </mxCell>
        <mxCell id="9Js-WEe5Cu6Oap4ZdQ6m-31" value="EBS" style="text;html=1;whiteSpace=wrap;strokeColor=none;fillColor=none;align=center;verticalAlign=middle;rounded=0;" vertex="1" parent="1">
          <mxGeometry x="520" y="320" width="60" height="30" as="geometry" />
        </mxCell>
        <mxCell id="9Js-WEe5Cu6Oap4ZdQ6m-32" value="Lambda" style="text;html=1;whiteSpace=wrap;strokeColor=none;fillColor=none;align=center;verticalAlign=middle;rounded=0;" vertex="1" parent="1">
          <mxGeometry x="725" y="328" width="60" height="30" as="geometry" />
        </mxCell>
        <mxCell id="9Js-WEe5Cu6Oap4ZdQ6m-33" value="S3" style="text;html=1;whiteSpace=wrap;strokeColor=none;fillColor=none;align=center;verticalAlign=middle;rounded=0;" vertex="1" parent="1">
          <mxGeometry x="460" y="110" width="60" height="30" as="geometry" />
        </mxCell>
        <mxCell id="9Js-WEe5Cu6Oap4ZdQ6m-34" value="Internet Gateway" style="text;html=1;whiteSpace=wrap;strokeColor=none;fillColor=none;align=center;verticalAlign=middle;rounded=0;" vertex="1" parent="1">
          <mxGeometry x="220" y="460" width="60" height="30" as="geometry" />
        </mxCell>
        <mxCell id="9Js-WEe5Cu6Oap4ZdQ6m-35" value="Usuário" style="text;html=1;whiteSpace=wrap;strokeColor=none;fillColor=none;align=center;verticalAlign=middle;rounded=0;" vertex="1" parent="1">
          <mxGeometry x="420" y="467" width="60" height="30" as="geometry" />
        </mxCell>
        <mxCell id="9Js-WEe5Cu6Oap4ZdQ6m-36" value="Volume de dados" style="text;html=1;whiteSpace=wrap;strokeColor=none;fillColor=none;align=center;verticalAlign=middle;rounded=0;" vertex="1" parent="1">
          <mxGeometry x="501" y="212" width="60" height="30" as="geometry" />
        </mxCell>
        <mxCell id="9Js-WEe5Cu6Oap4ZdQ6m-37" value="Processamento automatizado" style="text;html=1;whiteSpace=wrap;strokeColor=none;fillColor=none;align=center;verticalAlign=middle;rounded=0;" vertex="1" parent="1">
          <mxGeometry x="738" y="192" width="60" height="30" as="geometry" />
        </mxCell>
        <mxCell id="9Js-WEe5Cu6Oap4ZdQ6m-40" value="Arquivos/Iamgens" style="text;html=1;whiteSpace=wrap;strokeColor=none;fillColor=none;align=center;verticalAlign=middle;rounded=0;" vertex="1" parent="1">
          <mxGeometry x="500" y="18" width="60" height="30" as="geometry" />
        </mxCell>
      </root>
    </mxGraphModel>
  </diagram>
</mxfile>
